<svg width="16" height="19" viewBox="0 0 16 19" fill="none" xmlns="http://www.w3.org/2000/svg">
<path d="M14.2015 18.8259C12.4958 18.8259 10.8333 18.3532 9.21381 17.4078C7.59436 16.4624 6.15975 15.2019 4.90999 13.6262C3.66023 12.0505 2.65534 10.2466 1.89533 8.21449C1.13532 6.18236 0.755045 4.09683 0.754517 1.95789V1.43543C0.754517 1.25298 0.767739 1.07882 0.794183 0.912964H5.43517L6.169 5.91367L3.90801 8.77476C4.46334 9.96896 5.16094 11.0885 6.00082 12.1334C6.84069 13.1784 7.76281 14.0823 8.76717 14.8453L11.0678 11.9593L15.0345 12.9545V18.7762C14.9023 18.7928 14.7634 18.8054 14.618 18.814C14.4725 18.8226 14.3337 18.8266 14.2015 18.8259Z" fill="black"/>
</svg>
